Coordinates
version=1
nRows=9
nColumns=36
inDegrees=yes

Units are S.I. units (second, meters, Newtons, ...)
If the header above contains a line with 'inDegrees', this indicates whether rotational values are in degrees (yes) or radians (no).

endheader
time	pelvis_tilt	pelvis_list	pelvis_rotation	pelvis_tx	pelvis_ty	pelvis_tz	hip_flexion_r	hip_adduction_r	hip_rotation_r	knee_angle_r	knee_angle_r_beta	ankle_angle_r	subtalar_angle_r	mtp_angle_r	hip_flexion_l	hip_adduction_l	hip_rotation_l	knee_angle_l	knee_angle_l_beta	ankle_angle_l	subtalar_angle_l	mtp_angle_l	lumbar_extension	lumbar_bending	lumbar_rotation	arm_flex_r	arm_add_r	arm_rot_r	elbow_flex_r	pro_sup_r	arm_flex_l	arm_add_l	arm_rot_l	elbow_flex_l	pro_sup_l
      0.00000000	      3.17597063	     -0.22662275	     11.58204683	     -0.11455059	      1.29115483	      0.34855452	     -4.06725442	     -1.36287784	     -5.11513546	      1.91590071	      0.03343878	     18.50270874	      5.50674688	     -6.78858517	     -8.24087176	     -1.04873532	      0.77584907	      0.71965288	      0.01256031	     25.80038972	     12.15466993	     -6.78858517	     -2.75237153	      0.84101245	     -1.65297610	    -24.87145767	    -43.31956950	     28.65892560	     87.52918578	     68.87964677	    -27.06217339	    -36.84111859	     26.11296470	     86.83953870	     72.44129979
      0.01666670	      3.00867146	     -0.25878567	     12.43844994	     -0.11584888	      1.28916636	      0.34693350	     -5.17588403	     -0.75474643	     -4.34128191	      0.75370996	      0.01315472	     19.12324548	      6.38408892	     -6.83075620	     -7.74386405	     -0.96550264	      1.38876105	      0.50346695	      0.00878716	     25.72539126	     10.91813190	     -6.83075620	     -2.87676391	      0.82603282	     -2.37317539	    -27.67673311	    -43.58751355	     25.53688028	     90.87526108	     69.00700232	    -29.12463079	    -35.37025908	     22.74462542	     89.31457213	     72.92252236
      0.03333330	      2.64212048	     -0.47695647	     13.01644287	     -0.11712803	      1.29098791	      0.34548480	     -5.27030539	     -0.39210213	     -4.64918084	      0.58146829	      0.01014854	     18.54562484	      6.93397505	     -7.02538422	     -7.15375588	     -1.07342070	      1.37175193	      0.29322543	      0.00511775	     25.99709982	     10.66888809	     -7.02538422	     -2.74266473	      1.14666141	     -2.45679417	    -29.96596415	    -42.86767596	     22.69303066	     91.73854463	     72.57197251	    -28.75591344	    -34.49485760	     21.50573738	     89.54182557	     77.76749236
      0.05000000	      1.82980877	     -0.56452993	     13.44830231	     -0.11838674	      1.29018164	      0.34502614	     -4.59570837	     -0.49184840	     -4.78030233	      0.63581817	      0.01109712	     17.99706359	      6.90765694	     -7.06862731	     -6.06795200	     -0.87338865	      1.47544316	      0.26173724	      0.00456818	     25.92257536	     10.42103337	     -7.06862731	     -1.93533677	      1.00639329	     -2.91845665	    -30.04871080	    -42.50652875	     22.58704032	     91.54593696	     72.12333208	    -28.38560462	    -33.84107342	     21.34704825	     89.37045697	     77.07100754
      0.06666670	      2.06210412	     -0.47910889	     13.57778752	     -0.11925843	      1.29150427	      0.34458370	     -4.84343684	     -0.51147805	     -4.86977505	      0.77085620	      0.01345398	     18.07062144	      7.19877814	     -7.12118142	     -6.26778206	     -0.77663121	      1.38215511	      0.25095484	      0.00437999	     26.01776309	     10.54026795	     -7.12118142	     -2.53035957	      1.03132025	     -3.19098550	    -29.97637468	    -42.16274331	     21.92559250	     91.73658059	     71.82128827	    -28.27090469	    -33.24573114	     20.71083752	     89.41150036	     76.53755672
      0.08333330	      2.19069027	     -0.40322454	     13.46637135	     -0.12005291	      1.29183700	      0.34497869	     -4.95937905	     -0.56933906	     -4.90637901	      0.95831793	      0.01672580	     18.10677666	      7.48150872	     -7.16528564	     -6.42000447	     -0.68064216	      0.89443877	      0.25307008	      0.00441691	     25.96224586	     10.96694023	     -7.16528564	     -2.84366037	      0.98582962	     -3.19466639	    -30.11140544	    -41.95737266	     21.32625050	     91.72334183	     71.70410405	    -28.17989559	    -32.85921355	     19.80697306	     89.86983101	     76.27050347
      0.10000000	      2.25912114	     -0.32796559	     13.37083339	     -0.12007308	      1.29262991	      0.34494060	     -4.92632541	     -0.66902155	     -5.01636065	      1.12912822	      0.01970701	     18.11659695	      7.62775423	     -7.20195632	     -6.55307828	     -0.61169877	      0.23821009	      0.26204214	      0.00457350	     25.86122483	     11.41492249	     -7.20195632	     -3.14160108	      0.96343861	     -3.13868702	    -30.21497664	    -41.80145035	     20.98312834	     91.63040517	     71.45228775	    -28.13261323	    -32.55015434	     19.11832209	     90.02674757	     75.79713425
      0.11666670	      2.33468670	     -0.24047725	     13.23096561	     -0.12041236	      1.29262500	      0.34551154	     -4.92090921	     -0.76610317	     -4.73412177	      1.27786644	      0.02230298	     17.84906852	      7.39300520	     -7.29509952	     -6.60537219	     -0.53157058	     -0.33750649	      0.27312628	      0.00476695	     25.63151062	     11.76761389	     -7.29509952	     -3.55136976	      0.87876795	     -3.38393809	    -29.78529367	    -41.75872573	     20.90691536	     91.36038436	     76.43445439	    -28.59681853	    -31.80988924	     17.64470384	     89.85194371	     82.06012231
      0.13333330	      2.53068475	     -0.18499509	     13.22115203	     -0.12048375	      1.29064081	      0.34555971	     -5.02975018	     -0.77061864	     -4.66243286	      1.36870899	      0.02388848	     17.73705260	      7.29730237	     -7.31175971	     -6.79610765	     -0.50761425	     -0.64254173	      0.28913102	      0.00504629	     25.45453488	     11.87863267	     -7.31175971	     -3.99800707	      0.88148734	     -3.31563906	    -29.67073276	    -41.69577790	     20.87672027	     91.42105248	     75.91577634	    -28.51733848	    -31.72757474	     17.63465028	     89.77909938	     81.33682828
